<svg xmlns="http://www.w3.org/2000/svg" width="1080" height="510" viewBox="0 0 1080 510">
<rect width="100%" height="100%" fill="#fffdf8"/>
<text x="280" y="36" font-size="28" font-family="Helvetica, Arial, sans-serif" fill="#1f2937">CUDA vs Triton: representative assignment regimes</text>
<text x="280" y="58" font-size="15" font-family="Helvetica, Arial, sans-serif" fill="#4b5563">Bars show mean speedup by regime. Labels on the right show the best point in each regime.</text>
<line x1="280.0" y1="90" x2="280.0" y2="450" stroke="#e5e7eb" stroke-width="1"/>
<text x="280.0" y="474" text-anchor="middle" font-size="13" font-family="Helvetica, Arial, sans-serif" fill="#6b7280">0.0</text>
<line x1="320.0" y1="90" x2="320.0" y2="450" stroke="#e5e7eb" stroke-width="1"/>
<text x="320.0" y="474" text-anchor="middle" font-size="13" font-family="Helvetica, Arial, sans-serif" fill="#6b7280">0.2</text>
<line x1="360.0" y1="90" x2="360.0" y2="450" stroke="#e5e7eb" stroke-width="1"/>
<text x="360.0" y="474" text-anchor="middle" font-size="13" font-family="Helvetica, Arial, sans-serif" fill="#6b7280">0.4</text>
<line x1="400.0" y1="90" x2="400.0" y2="450" stroke="#e5e7eb" stroke-width="1"/>
<text x="400.0" y="474" text-anchor="middle" font-size="13" font-family="Helvetica, Arial, sans-serif" fill="#6b7280">0.6</text>
<line x1="440.0" y1="90" x2="440.0" y2="450" stroke="#e5e7eb" stroke-width="1"/>
<text x="440.0" y="474" text-anchor="middle" font-size="13" font-family="Helvetica, Arial, sans-serif" fill="#6b7280">0.8</text>
<line x1="480.0" y1="90" x2="480.0" y2="450" stroke="#d97706" stroke-width="2"/>
<text x="480.0" y="474" text-anchor="middle" font-size="13" font-family="Helvetica, Arial, sans-serif" fill="#6b7280">1.0</text>
<line x1="520.0" y1="90" x2="520.0" y2="450" stroke="#e5e7eb" stroke-width="1"/>
<text x="520.0" y="474" text-anchor="middle" font-size="13" font-family="Helvetica, Arial, sans-serif" fill="#6b7280">1.2</text>
<line x1="560.0" y1="90" x2="560.0" y2="450" stroke="#e5e7eb" stroke-width="1"/>
<text x="560.0" y="474" text-anchor="middle" font-size="13" font-family="Helvetica, Arial, sans-serif" fill="#6b7280">1.4</text>
<line x1="600.0" y1="90" x2="600.0" y2="450" stroke="#e5e7eb" stroke-width="1"/>
<text x="600.0" y="474" text-anchor="middle" font-size="13" font-family="Helvetica, Arial, sans-serif" fill="#6b7280">1.6</text>
<line x1="640.0" y1="90" x2="640.0" y2="450" stroke="#e5e7eb" stroke-width="1"/>
<text x="640.0" y="474" text-anchor="middle" font-size="13" font-family="Helvetica, Arial, sans-serif" fill="#6b7280">1.8</text>
<line x1="680.0" y1="90" x2="680.0" y2="450" stroke="#e5e7eb" stroke-width="1"/>
<text x="680.0" y="474" text-anchor="middle" font-size="13" font-family="Helvetica, Arial, sans-serif" fill="#6b7280">2.0</text>
<line x1="720.0" y1="90" x2="720.0" y2="450" stroke="#e5e7eb" stroke-width="1"/>
<text x="720.0" y="474" text-anchor="middle" font-size="13" font-family="Helvetica, Arial, sans-serif" fill="#6b7280">2.2</text>
<line x1="760.0" y1="90" x2="760.0" y2="450" stroke="#e5e7eb" stroke-width="1"/>
<text x="760.0" y="474" text-anchor="middle" font-size="13" font-family="Helvetica, Arial, sans-serif" fill="#6b7280">2.4</text>
<line x1="800.0" y1="90" x2="800.0" y2="450" stroke="#e5e7eb" stroke-width="1"/>
<text x="800.0" y="474" text-anchor="middle" font-size="13" font-family="Helvetica, Arial, sans-serif" fill="#6b7280">2.6</text>
<line x1="840.0" y1="90" x2="840.0" y2="450" stroke="#e5e7eb" stroke-width="1"/>
<text x="840.0" y="474" text-anchor="middle" font-size="13" font-family="Helvetica, Arial, sans-serif" fill="#6b7280">2.8</text>
<line x1="880.0" y1="90" x2="880.0" y2="450" stroke="#e5e7eb" stroke-width="1"/>
<text x="880.0" y="474" text-anchor="middle" font-size="13" font-family="Helvetica, Arial, sans-serif" fill="#6b7280">3.0</text>
<line x1="920.0" y1="90" x2="920.0" y2="450" stroke="#e5e7eb" stroke-width="1"/>
<text x="920.0" y="474" text-anchor="middle" font-size="13" font-family="Helvetica, Arial, sans-serif" fill="#6b7280">3.2</text>
<line x1="960.0" y1="90" x2="960.0" y2="450" stroke="#e5e7eb" stroke-width="1"/>
<text x="960.0" y="474" text-anchor="middle" font-size="13" font-family="Helvetica, Arial, sans-serif" fill="#6b7280">3.4</text>
<text x="262" y="122.0" text-anchor="end" font-size="17" font-family="Helvetica, Arial, sans-serif" fill="#374151">Large M Large N</text>
<rect x="280" y="102.0" width="274.0" height="28" rx="6" fill="#0f766e" opacity="0.92"/>
<text x="564.0" y="121.0" font-size="14" font-family="Helvetica, Arial, sans-serif" fill="#111827">mean 1.370x</text>
<line x1="581.3" y1="92.0" x2="581.3" y2="140.0" stroke="#1d4ed8" stroke-width="3"/>
<text x="591.3" y="104.0" font-size="13" font-family="Helvetica, Arial, sans-serif" fill="#1d4ed8">best 1.506x</text>
<text x="591.3" y="123.0" font-size="12" font-family="Helvetica, Arial, sans-serif" fill="#4b5563">M=262,144 N=32,768 K=512</text>
<text x="262" y="212.0" text-anchor="end" font-size="17" font-family="Helvetica, Arial, sans-serif" fill="#374151">Large M Small N</text>
<rect x="280" y="192.0" width="446.9" height="28" rx="6" fill="#0f766e" opacity="0.92"/>
<text x="736.9" y="211.0" font-size="14" font-family="Helvetica, Arial, sans-serif" fill="#111827">mean 2.234x</text>
<line x1="762.7" y1="182.0" x2="762.7" y2="230.0" stroke="#1d4ed8" stroke-width="3"/>
<text x="772.7" y="194.0" font-size="13" font-family="Helvetica, Arial, sans-serif" fill="#1d4ed8">best 2.414x</text>
<text x="772.7" y="213.0" font-size="12" font-family="Helvetica, Arial, sans-serif" fill="#4b5563">M=1,048,576 N=1,024 K=128</text>
<text x="262" y="302.0" text-anchor="end" font-size="17" font-family="Helvetica, Arial, sans-serif" fill="#374151">Small M Small N</text>
<rect x="280" y="282.0" width="482.6" height="28" rx="6" fill="#0f766e" opacity="0.92"/>
<text x="772.6" y="301.0" font-size="14" font-family="Helvetica, Arial, sans-serif" fill="#111827">mean 2.413x</text>
<line x1="956.2" y1="272.0" x2="956.2" y2="320.0" stroke="#1d4ed8" stroke-width="3"/>
<text x="966.2" y="284.0" font-size="13" font-family="Helvetica, Arial, sans-serif" fill="#1d4ed8">best 3.381x</text>
<text x="966.2" y="303.0" font-size="12" font-family="Helvetica, Arial, sans-serif" fill="#4b5563">M=4,096 N=1,024 K=128</text>
</svg>
