<svg xmlns="http://www.w3.org/2000/svg" width="1040" height="466" viewBox="0 0 1040 466">
<rect width="100%" height="100%" fill="#fffdf8"/>
<text x="280" y="36" font-size="28" font-family="Helvetica, Arial, sans-serif" fill="#1f2937">CUDA vs Triton: representative assignment regimes</text>
<text x="280" y="58" font-size="15" font-family="Helvetica, Arial, sans-serif" fill="#4b5563">Bars show mean CUDA speedup over Triton for each representative assignment regime.</text>
<line x1="280.0" y1="90" x2="280.0" y2="406" stroke="#e5e7eb" stroke-width="1"/>
<text x="280.0" y="430" text-anchor="middle" font-size="13" font-family="Helvetica, Arial, sans-serif" fill="#6b7280">0.0</text>
<line x1="333.6" y1="90" x2="333.6" y2="406" stroke="#e5e7eb" stroke-width="1"/>
<text x="333.6" y="430" text-anchor="middle" font-size="13" font-family="Helvetica, Arial, sans-serif" fill="#6b7280">0.2</text>
<line x1="387.2" y1="90" x2="387.2" y2="406" stroke="#e5e7eb" stroke-width="1"/>
<text x="387.2" y="430" text-anchor="middle" font-size="13" font-family="Helvetica, Arial, sans-serif" fill="#6b7280">0.4</text>
<line x1="440.8" y1="90" x2="440.8" y2="406" stroke="#e5e7eb" stroke-width="1"/>
<text x="440.8" y="430" text-anchor="middle" font-size="13" font-family="Helvetica, Arial, sans-serif" fill="#6b7280">0.6</text>
<line x1="494.4" y1="90" x2="494.4" y2="406" stroke="#e5e7eb" stroke-width="1"/>
<text x="494.4" y="430" text-anchor="middle" font-size="13" font-family="Helvetica, Arial, sans-serif" fill="#6b7280">0.8</text>
<line x1="548.0" y1="90" x2="548.0" y2="406" stroke="#d97706" stroke-width="2"/>
<text x="548.0" y="430" text-anchor="middle" font-size="13" font-family="Helvetica, Arial, sans-serif" fill="#6b7280">1.0</text>
<line x1="601.6" y1="90" x2="601.6" y2="406" stroke="#e5e7eb" stroke-width="1"/>
<text x="601.6" y="430" text-anchor="middle" font-size="13" font-family="Helvetica, Arial, sans-serif" fill="#6b7280">1.2</text>
<line x1="655.2" y1="90" x2="655.2" y2="406" stroke="#e5e7eb" stroke-width="1"/>
<text x="655.2" y="430" text-anchor="middle" font-size="13" font-family="Helvetica, Arial, sans-serif" fill="#6b7280">1.4</text>
<line x1="708.8" y1="90" x2="708.8" y2="406" stroke="#e5e7eb" stroke-width="1"/>
<text x="708.8" y="430" text-anchor="middle" font-size="13" font-family="Helvetica, Arial, sans-serif" fill="#6b7280">1.6</text>
<line x1="762.4" y1="90" x2="762.4" y2="406" stroke="#e5e7eb" stroke-width="1"/>
<text x="762.4" y="430" text-anchor="middle" font-size="13" font-family="Helvetica, Arial, sans-serif" fill="#6b7280">1.8</text>
<line x1="816.0" y1="90" x2="816.0" y2="406" stroke="#e5e7eb" stroke-width="1"/>
<text x="816.0" y="430" text-anchor="middle" font-size="13" font-family="Helvetica, Arial, sans-serif" fill="#6b7280">2.0</text>
<line x1="869.6" y1="90" x2="869.6" y2="406" stroke="#e5e7eb" stroke-width="1"/>
<text x="869.6" y="430" text-anchor="middle" font-size="13" font-family="Helvetica, Arial, sans-serif" fill="#6b7280">2.2</text>
<line x1="923.2" y1="90" x2="923.2" y2="406" stroke="#e5e7eb" stroke-width="1"/>
<text x="923.2" y="430" text-anchor="middle" font-size="13" font-family="Helvetica, Arial, sans-serif" fill="#6b7280">2.4</text>
<text x="262" y="122.0" text-anchor="end" font-size="17" font-family="Helvetica, Arial, sans-serif" fill="#374151">Large-N Large-K</text>
<rect x="280" y="102.0" width="367.2" height="28" rx="6" fill="#0f766e" opacity="0.92"/>
<text x="657.2" y="121.0" font-size="14" font-family="Helvetica, Arial, sans-serif" fill="#111827">1.370x</text>
<text x="262" y="204.0" text-anchor="end" font-size="17" font-family="Helvetica, Arial, sans-serif" fill="#374151">Large-N Small-K</text>
<rect x="280" y="184.0" width="598.7" height="28" rx="6" fill="#0f766e" opacity="0.92"/>
<text x="888.7" y="203.0" font-size="14" font-family="Helvetica, Arial, sans-serif" fill="#111827">2.234x</text>
<text x="262" y="286.0" text-anchor="end" font-size="17" font-family="Helvetica, Arial, sans-serif" fill="#374151">Small-N Small-K</text>
<rect x="280" y="266.0" width="646.7" height="28" rx="6" fill="#0f766e" opacity="0.92"/>
<text x="898.0" y="285.0" font-size="14" font-family="Helvetica, Arial, sans-serif" fill="#111827">2.413x</text>
</svg>
