<svg xmlns="http://www.w3.org/2000/svg" width="1260" height="760" viewBox="0 0 1260 760">
<rect width="100%" height="100%" fill="#fffdf8"/>
<text x="90" y="36" font-size="28" font-family="Helvetica, Arial, sans-serif" fill="#1f2937">CUDA vs Triton: best kernel per shape</text>
<text x="90" y="58" font-size="15" font-family="Helvetica, Arial, sans-serif" fill="#4b5563">Speedup is Triton time divided by CUDA time. Values above 1.0 mean CUDA is faster.</text>
<line x1="90" y1="610.0" x2="1220" y2="610.0" stroke="#e5e7eb" stroke-width="1"/>
<text x="78" y="615.0" text-anchor="end" font-size="13" font-family="Helvetica, Arial, sans-serif" fill="#6b7280">0.9</text>
<line x1="90" y1="588.4" x2="1220" y2="588.4" stroke="#d97706" stroke-width="2"/>
<text x="78" y="593.4" text-anchor="end" font-size="13" font-family="Helvetica, Arial, sans-serif" fill="#6b7280">1.0</text>
<line x1="90" y1="566.8" x2="1220" y2="566.8" stroke="#e5e7eb" stroke-width="1"/>
<text x="78" y="571.8" text-anchor="end" font-size="13" font-family="Helvetica, Arial, sans-serif" fill="#6b7280">1.1</text>
<line x1="90" y1="545.2" x2="1220" y2="545.2" stroke="#e5e7eb" stroke-width="1"/>
<text x="78" y="550.2" text-anchor="end" font-size="13" font-family="Helvetica, Arial, sans-serif" fill="#6b7280">1.2</text>
<line x1="90" y1="523.6" x2="1220" y2="523.6" stroke="#e5e7eb" stroke-width="1"/>
<text x="78" y="528.6" text-anchor="end" font-size="13" font-family="Helvetica, Arial, sans-serif" fill="#6b7280">1.3</text>
<line x1="90" y1="502.0" x2="1220" y2="502.0" stroke="#e5e7eb" stroke-width="1"/>
<text x="78" y="507.0" text-anchor="end" font-size="13" font-family="Helvetica, Arial, sans-serif" fill="#6b7280">1.4</text>
<line x1="90" y1="480.4" x2="1220" y2="480.4" stroke="#e5e7eb" stroke-width="1"/>
<text x="78" y="485.4" text-anchor="end" font-size="13" font-family="Helvetica, Arial, sans-serif" fill="#6b7280">1.5</text>
<line x1="90" y1="458.8" x2="1220" y2="458.8" stroke="#e5e7eb" stroke-width="1"/>
<text x="78" y="463.8" text-anchor="end" font-size="13" font-family="Helvetica, Arial, sans-serif" fill="#6b7280">1.6</text>
<line x1="90" y1="437.2" x2="1220" y2="437.2" stroke="#e5e7eb" stroke-width="1"/>
<text x="78" y="442.2" text-anchor="end" font-size="13" font-family="Helvetica, Arial, sans-serif" fill="#6b7280">1.7</text>
<line x1="90" y1="415.6" x2="1220" y2="415.6" stroke="#e5e7eb" stroke-width="1"/>
<text x="78" y="420.6" text-anchor="end" font-size="13" font-family="Helvetica, Arial, sans-serif" fill="#6b7280">1.8</text>
<line x1="90" y1="394.0" x2="1220" y2="394.0" stroke="#e5e7eb" stroke-width="1"/>
<text x="78" y="399.0" text-anchor="end" font-size="13" font-family="Helvetica, Arial, sans-serif" fill="#6b7280">1.9</text>
<line x1="90" y1="372.4" x2="1220" y2="372.4" stroke="#e5e7eb" stroke-width="1"/>
<text x="78" y="377.4" text-anchor="end" font-size="13" font-family="Helvetica, Arial, sans-serif" fill="#6b7280">2.0</text>
<line x1="90" y1="350.8" x2="1220" y2="350.8" stroke="#e5e7eb" stroke-width="1"/>
<text x="78" y="355.8" text-anchor="end" font-size="13" font-family="Helvetica, Arial, sans-serif" fill="#6b7280">2.1</text>
<line x1="90" y1="329.2" x2="1220" y2="329.2" stroke="#e5e7eb" stroke-width="1"/>
<text x="78" y="334.2" text-anchor="end" font-size="13" font-family="Helvetica, Arial, sans-serif" fill="#6b7280">2.2</text>
<line x1="90" y1="307.6" x2="1220" y2="307.6" stroke="#e5e7eb" stroke-width="1"/>
<text x="78" y="312.6" text-anchor="end" font-size="13" font-family="Helvetica, Arial, sans-serif" fill="#6b7280">2.3</text>
<line x1="90" y1="286.0" x2="1220" y2="286.0" stroke="#e5e7eb" stroke-width="1"/>
<text x="78" y="291.0" text-anchor="end" font-size="13" font-family="Helvetica, Arial, sans-serif" fill="#6b7280">2.4</text>
<line x1="90" y1="264.4" x2="1220" y2="264.4" stroke="#e5e7eb" stroke-width="1"/>
<text x="78" y="269.4" text-anchor="end" font-size="13" font-family="Helvetica, Arial, sans-serif" fill="#6b7280">2.5</text>
<line x1="90" y1="242.8" x2="1220" y2="242.8" stroke="#e5e7eb" stroke-width="1"/>
<text x="78" y="247.8" text-anchor="end" font-size="13" font-family="Helvetica, Arial, sans-serif" fill="#6b7280">2.6</text>
<line x1="90" y1="221.2" x2="1220" y2="221.2" stroke="#e5e7eb" stroke-width="1"/>
<text x="78" y="226.2" text-anchor="end" font-size="13" font-family="Helvetica, Arial, sans-serif" fill="#6b7280">2.7</text>
<line x1="90" y1="199.6" x2="1220" y2="199.6" stroke="#e5e7eb" stroke-width="1"/>
<text x="78" y="204.6" text-anchor="end" font-size="13" font-family="Helvetica, Arial, sans-serif" fill="#6b7280">2.8</text>
<line x1="90" y1="178.0" x2="1220" y2="178.0" stroke="#e5e7eb" stroke-width="1"/>
<text x="78" y="183.0" text-anchor="end" font-size="13" font-family="Helvetica, Arial, sans-serif" fill="#6b7280">2.9</text>
<line x1="90" y1="156.4" x2="1220" y2="156.4" stroke="#e5e7eb" stroke-width="1"/>
<text x="78" y="161.4" text-anchor="end" font-size="13" font-family="Helvetica, Arial, sans-serif" fill="#6b7280">3.0</text>
<line x1="90" y1="134.8" x2="1220" y2="134.8" stroke="#e5e7eb" stroke-width="1"/>
<text x="78" y="139.8" text-anchor="end" font-size="13" font-family="Helvetica, Arial, sans-serif" fill="#6b7280">3.1</text>
<line x1="90" y1="113.2" x2="1220" y2="113.2" stroke="#e5e7eb" stroke-width="1"/>
<text x="78" y="118.2" text-anchor="end" font-size="13" font-family="Helvetica, Arial, sans-serif" fill="#6b7280">3.2</text>
<line x1="90" y1="91.6" x2="1220" y2="91.6" stroke="#e5e7eb" stroke-width="1"/>
<text x="78" y="96.6" text-anchor="end" font-size="13" font-family="Helvetica, Arial, sans-serif" fill="#6b7280">3.3</text>
<line x1="90" y1="70.0" x2="1220" y2="70.0" stroke="#e5e7eb" stroke-width="1"/>
<text x="78" y="75.0" text-anchor="end" font-size="13" font-family="Helvetica, Arial, sans-serif" fill="#6b7280">3.4</text>
<polyline fill="none" stroke="#0f766e" stroke-width="3" points="90.0,87.4 184.2,420.3 278.3,564.3 372.5,544.8 466.7,346.2 560.8,480.7 655.0,459.4 749.2,505.2 843.3,518.6 937.5,532.9 1031.7,431.8 1125.8,394.2 1220.0,453.5"/>
<circle cx="90.0" cy="87.4" r="5.5" fill="#0f766e" stroke="#ffffff" stroke-width="2"/>
<text transform="translate(90.0,634) rotate(35)" font-size="12" font-family="Helvetica, Arial, sans-serif" fill="#374151">M=4,096 N=1,024 K=128</text>
<circle cx="184.2" cy="420.3" r="5.5" fill="#0f766e" stroke="#ffffff" stroke-width="2"/>
<text transform="translate(184.2,634) rotate(35)" font-size="12" font-family="Helvetica, Arial, sans-serif" fill="#374151">M=8,192 N=2,048 K=128</text>
<circle cx="278.3" cy="564.3" r="5.5" fill="#0f766e" stroke="#ffffff" stroke-width="2"/>
<text transform="translate(278.3,634) rotate(35)" font-size="12" font-family="Helvetica, Arial, sans-serif" fill="#374151">M=32,768 N=4,096 K=128</text>
<circle cx="372.5" cy="544.8" r="5.5" fill="#0f766e" stroke="#ffffff" stroke-width="2"/>
<text transform="translate(372.5,634) rotate(35)" font-size="12" font-family="Helvetica, Arial, sans-serif" fill="#374151">M=131,072 N=16,384 K=128</text>
<circle cx="466.7" cy="346.2" r="5.5" fill="#0f766e" stroke="#ffffff" stroke-width="2"/>
<text transform="translate(466.7,634) rotate(35)" font-size="12" font-family="Helvetica, Arial, sans-serif" fill="#374151">M=4,096 N=1,024 K=256</text>
<circle cx="560.8" cy="480.7" r="5.5" fill="#0f766e" stroke="#ffffff" stroke-width="2"/>
<text transform="translate(560.8,634) rotate(35)" font-size="12" font-family="Helvetica, Arial, sans-serif" fill="#374151">M=8,192 N=2,048 K=256</text>
<circle cx="655.0" cy="459.4" r="5.5" fill="#0f766e" stroke="#ffffff" stroke-width="2"/>
<text transform="translate(655.0,634) rotate(35)" font-size="12" font-family="Helvetica, Arial, sans-serif" fill="#374151">M=32,768 N=4,096 K=256</text>
<circle cx="749.2" cy="505.2" r="5.5" fill="#0f766e" stroke="#ffffff" stroke-width="2"/>
<text transform="translate(749.2,634) rotate(35)" font-size="12" font-family="Helvetica, Arial, sans-serif" fill="#374151">M=131,072 N=16,384 K=256</text>
<circle cx="843.3" cy="518.6" r="5.5" fill="#0f766e" stroke="#ffffff" stroke-width="2"/>
<text transform="translate(843.3,634) rotate(35)" font-size="12" font-family="Helvetica, Arial, sans-serif" fill="#374151">M=262,144 N=32,768 K=256</text>
<circle cx="937.5" cy="532.9" r="5.5" fill="#0f766e" stroke="#ffffff" stroke-width="2"/>
<text transform="translate(937.5,634) rotate(35)" font-size="12" font-family="Helvetica, Arial, sans-serif" fill="#374151">M=4,096 N=1,024 K=512</text>
<circle cx="1031.7" cy="431.8" r="5.5" fill="#0f766e" stroke="#ffffff" stroke-width="2"/>
<text transform="translate(1031.7,634) rotate(35)" font-size="12" font-family="Helvetica, Arial, sans-serif" fill="#374151">M=8,192 N=2,048 K=512</text>
<circle cx="1125.8" cy="394.2" r="5.5" fill="#0f766e" stroke="#ffffff" stroke-width="2"/>
<text transform="translate(1125.8,634) rotate(35)" font-size="12" font-family="Helvetica, Arial, sans-serif" fill="#374151">M=32,768 N=4,096 K=512</text>
<circle cx="1220.0" cy="453.5" r="5.5" fill="#0f766e" stroke="#ffffff" stroke-width="2"/>
<text transform="translate(1220.0,634) rotate(35)" font-size="12" font-family="Helvetica, Arial, sans-serif" fill="#374151">M=131,072 N=16,384 K=512</text>
<rect x="940" y="88" width="240" height="90" rx="10" fill="#ffffff" stroke="#e5e7eb"/>
<text x="956" y="116" font-size="14" font-family="Helvetica, Arial, sans-serif" fill="#111827">Mean speedup: 1.680x</text>
<text x="956" y="138" font-size="14" font-family="Helvetica, Arial, sans-serif" fill="#111827">Geomean speedup: 1.611x</text>
<text x="956" y="160" font-size="14" font-family="Helvetica, Arial, sans-serif" fill="#111827">Best speedup: 3.319x</text>
</svg>
